<svg display="none" xmlns="http://www.w3.org/2000/svg">
  <symbol id="arrow" viewBox="0 0 21 13">
    <path fill-rule="evenodd" clip-rule="evenodd" d="M20.8 2.6L10.4 13L4.72389e-06 2.6L2.60001 -1.59109e-06L10.4 7.8L18.2 -2.27299e-07L20.8 2.6Z"/>
  </symbol>
  <symbol id="account" viewBox="0 0 18 18">
    <path d="M9 0C10.1935 0 11.3381 0.474106 12.182 1.31802C13.0259 2.16193 13.5 3.30653 13.5 4.5C13.5 5.69347 13.0259 6.83807 12.182 7.68198C11.3381 8.52589 10.1935 9 9 9C7.80653 9 6.66193 8.52589 5.81802 7.68198C4.97411 6.83807 4.5 5.69347 4.5 4.5C4.5 3.30653 4.97411 2.16193 5.81802 1.31802C6.66193 0.474106 7.80653 0 9 0ZM9 11.25C13.9725 11.25 18 13.2638 18 15.75V18H0V15.75C0 13.2638 4.0275 11.25 9 11.25Z"/>
  </symbol>
  <symbol id="cart" viewBox="0 0 24 19">
    <path fill-rule="evenodd" clip-rule="evenodd" d="M4.6 3.88H22.6L20.3162 11.872C20.1441 12.4736 19.7807 13.0028 19.2811 13.3795C18.7815 13.7563 18.1728 13.96 17.547 13.96H7.89904C7.18979 13.9604 6.50533 13.6991 5.97681 13.2261C5.4483 12.7531 5.1129 12.1017 5.03488 11.3968L3.88 1H1"/>
    <path d="M4.6 3.88H22.6L20.3162 11.872C20.1441 12.4736 19.7807 13.0028 19.2811 13.3795C18.7815 13.7563 18.1728 13.96 17.547 13.96H7.89904C7.18979 13.9604 6.50533 13.6991 5.97681 13.2261C5.4483 12.7531 5.1129 12.1017 5.03488 11.3968L3.88 1H1" stroke="#333333" stroke-linecap="round" stroke-linejoin="round"/>
    <path d="M7.48001 19C8.2753 19 8.92001 18.3553 8.92001 17.56C8.92001 16.7647 8.2753 16.12 7.48001 16.12C6.68472 16.12 6.04001 16.7647 6.04001 17.56C6.04001 18.3553 6.68472 19 7.48001 19Z"/>
    <path d="M19 19C19.7953 19 20.44 18.3553 20.44 17.56C20.44 16.7647 19.7953 16.12 19 16.12C18.2047 16.12 17.56 16.7647 17.56 17.56C17.56 18.3553 18.2047 19 19 19Z"/>
  </symbol>
  <symbol id="heart" viewBox="0 0 20 19">
    <path d="M10.1 15.55L10 15.65L9.89 15.55C5.14 11.24 2 8.39 2 5.5C2 3.5 3.5 2 5.5 2C7.04 2 8.54 3 9.07 4.36H10.93C11.46 3 12.96 2 14.5 2C16.5 2 18 3.5 18 5.5C18 8.39 14.86 11.24 10.1 15.55ZM14.5 0C12.76 0 11.09 0.81 10 2.08C8.91 0.81 7.24 0 5.5 0C2.42 0 0 2.41 0 5.5C0 9.27 3.4 12.36 8.55 17.03L10 18.35L11.45 17.03C16.6 12.36 20 9.27 20 5.5C20 2.41 17.58 0 14.5 0Z"/>
  </symbol>
  <symbol id="search" viewBox="0 0 27 27">
    <path fill="none" d="M26 26L17.6667 17.6667M1 10.7222C1 11.999 1.25147 13.2632 1.74006 14.4428C2.22865 15.6223 2.94478 16.6941 3.84757 17.5969C4.75036 18.4997 5.82213 19.2158 7.00169 19.7044C8.18124 20.193 9.44548 20.4444 10.7222 20.4444C11.999 20.4444 13.2632 20.193 14.4428 19.7044C15.6223 19.2158 16.6941 18.4997 17.5969 17.5969C18.4997 16.6941 19.2158 15.6223 19.7044 14.4428C20.193 13.2632 20.4444 11.999 20.4444 10.7222C20.4444 9.44548 20.193 8.18124 19.7044 7.00169C19.2158 5.82213 18.4997 4.75036 17.5969 3.84757C16.6941 2.94478 15.6223 2.22865 14.4428 1.74006C13.2632 1.25147 11.999 1 10.7222 1C9.44548 1 8.18124 1.25147 7.00169 1.74006C5.82213 2.22865 4.75036 2.94478 3.84757 3.84757C2.94478 4.75036 2.22865 5.82213 1.74006 7.00169C1.25147 8.18124 1 9.44548 1 10.7222Z" stroke="black" stroke-width="2" stroke-linecap="round" stroke-linejoin="round"/>
  </symbol>
</svg>